<svg width="48" height="48" viewBox="0 0 48 48" fill="none" xmlns="http://www.w3.org/2000/svg">
<g opacity="0.5" clip-path="url(#clip0_2_285)">
<mask id="mask0_2_285" style="mask-type:luminance" maskUnits="userSpaceOnUse" x="0" y="0" width="48" height="48">
<path d="M0 0H47.5V47.5H0V0Z" fill="white"/>
</mask>
<g mask="url(#mask0_2_285)">
<path d="M43.1824 12.1649L29.9999 6.28362V34.8736C29.9999 37.8999 26.7836 41.2499 23.7561 41.2499H22.8624L29.0624 43.9161C31.5599 45.0274 34.4849 43.8561 35.5986 41.3586L45.6761 18.7236C46.7899 16.2261 45.6799 13.2761 43.1824 12.1649Z" fill="#DD2E44"/>
</g>
<mask id="mask1_2_285" style="mask-type:luminance" maskUnits="userSpaceOnUse" x="22" y="6" width="25" height="39">
<path d="M30 34.8725C30 37.9 26.7837 41.25 23.7562 41.25H22.8625L29.0625 43.9163C31.56 45.0275 34.485 43.8563 35.5987 41.3588L45.6762 18.7238C46.79 16.2263 45.68 13.2763 43.1825 12.165L30 6.28375V34.8725Z" fill="white"/>
</mask>
<g mask="url(#mask1_2_285)">
<path d="M38.606 34.873C37.3685 32.398 33.6572 28.6855 22.5185 28.6855C11.381 28.6855 18.806 36.1105 20.0435 39.8217C21.281 43.5355 25.3535 47.2467 29.5822 47.2467C33.811 47.2467 37.3685 47.2467 38.606 43.5355C39.8435 39.8217 38.606 34.873 38.606 34.873Z" fill="black"/>
</g>
<mask id="mask2_2_285" style="mask-type:luminance" maskUnits="userSpaceOnUse" x="0" y="0" width="48" height="48">
<path d="M0 0H47.5V47.5H0V0Z" fill="white"/>
</mask>
<g mask="url(#mask2_2_285)">
<path d="M27.5 33.4656C27.5 36.3844 25.1337 38.7506 22.215 38.7506H6.535C3.61625 38.7506 1.25 36.3844 1.25 33.4656V6.53437C1.25 3.61562 3.61625 1.25063 6.535 1.25063H22.215C25.1337 1.25063 27.5 3.61562 27.5 6.53437V33.4656Z" fill="#DD2E44"/>
</g>
<mask id="mask3_2_285" style="mask-type:luminance" maskUnits="userSpaceOnUse" x="1" y="1" width="27" height="38">
<path d="M6.53375 1.25C3.61625 1.25 1.25 3.61625 1.25 6.53375V33.4662C1.25 36.3837 3.61625 38.75 6.53375 38.75H22.215C25.135 38.75 27.5 36.3837 27.5 33.4662V6.53375C27.5 3.61625 25.135 1.25 22.215 1.25H6.53375Z" fill="white"/>
</mask>
<g mask="url(#mask3_2_285)">
<path d="M1.25 30C5 27.5 21.25 21.25 27.5 28.75C36.1563 39.1375 33.75 32.5 30 36.25C26.25 40 15 42.5 10 41.25C5 40 0 42.135 0 38.8538C0 35.5725 1.25 30 1.25 30Z" fill="black"/>
</g>
<mask id="mask4_2_285" style="mask-type:luminance" maskUnits="userSpaceOnUse" x="0" y="0" width="48" height="48">
<path d="M0 0H47.5V47.5H0V0Z" fill="white"/>
</mask>
<g mask="url(#mask4_2_285)">
<path d="M20.9943 14.2645C20.9943 9.9045 17.4593 6.37075 13.1005 6.37075C8.74051 6.37075 5.20676 9.9045 5.20676 14.2645C5.20676 18.6233 8.74051 22.1595 13.1005 22.1595C17.4593 22.1595 20.9943 18.6233 20.9943 14.2645Z" fill="white"/>
<path d="M30 11.4361V24.5936C33.36 24.2624 35.9938 21.4611 35.9938 18.0149C35.9938 14.5674 33.36 11.7674 30 11.4361Z" fill="white"/>
</g>
</g>
<defs>
<clipPath id="clip0_2_285">
<rect width="47.5" height="47.5" fill="white"/>
</clipPath>
</defs>
</svg>
